<svg width="259" height="217" viewBox="0 0 259 217" fill="none" xmlns="http://www.w3.org/2000/svg">
<g clip-path="url(#clip0_14_3043)">
<mask id="mask0_14_3043" style="mask-type:luminance" maskUnits="userSpaceOnUse" x="63" y="0" width="132" height="99">
<path d="M71.2129 98.3581C69.1295 92.5208 67.7496 90.2721 66.5845 83.3288C65.5885 77.3905 65.2321 70.7593 65.9494 64.6237C66.5571 59.4196 68.17 53.2152 69.9519 48.8326C73.5477 39.994 76.1932 36.2584 82.2883 28.9893C82.7086 28.4891 83.0878 28.2229 83.4899 27.764C83.8874 27.3143 84.2849 26.9564 84.7007 26.5479C87.3553 23.9551 88.2965 23.1199 91.3806 20.7886C101.88 12.8632 115.071 8.49442 128.509 8.35675C137.551 8.26496 148.722 10.5136 156.704 14.7081C160.135 16.5116 159.624 16.1582 163.009 18.26C164.037 18.8979 164.997 19.5725 165.988 20.2838C167.948 21.6881 169.634 23.074 171.439 24.6893C173.372 26.4148 174.651 27.8512 176.36 29.6364C177.776 31.1187 179.453 33.3398 180.783 35.2259C185.973 42.573 190.57 52.6232 191.931 63.7334C193.224 74.2837 192.123 84.3568 188.509 94.1683C188.116 95.2283 187.33 96.807 187.138 97.7523C189.382 94.5905 191.982 86.376 192.987 82.388C197.496 64.4722 193.389 44.9731 183.972 30.6643C182.656 28.6635 179.892 24.7949 178.256 23.1658C177.754 22.661 177.466 22.2112 176.986 21.6972L172.961 17.8286C172.344 17.2321 172.07 17.0439 171.508 16.5483C160.505 6.77351 144.55 0.890286 128.509 0.917821C113.787 0.945355 100.286 5.98877 88.9773 14.5704L84.6596 18.1499C83.3072 19.2237 79.259 23.7532 78.1898 25.0381C76.5222 27.0435 75.2154 28.9664 73.6437 31.2701L69.8468 38.1033C68.7137 40.563 67.7222 42.8392 66.749 45.634C65.1544 50.2139 63.2765 58.3641 63.3999 63.7058C63.4364 65.2983 63.1486 67.1293 63.3085 68.841C63.9573 75.743 63.2765 74.7472 65.2229 82.9984C66.5937 88.7944 68.7594 93.7415 71.2129 98.3581Z" fill="white"/>
</mask>
<g mask="url(#mask0_14_3043)">
<path d="M197.501 0.890381H63.1533V98.3582H197.501V0.890381Z" fill="url(#paint0_linear_14_3043)"/>
</g>
<mask id="mask1_14_3043" style="mask-type:luminance" maskUnits="userSpaceOnUse" x="128" y="27" width="53" height="92">
<path d="M128.513 89.1018L128.618 117.774C132.269 120.28 142.006 117.444 142.44 110.579C141.393 109.95 139.355 109.551 137.925 109.574C137.56 109.932 137.066 110.482 136.76 110.698C135.814 111.368 135.842 111.35 135.157 110.845C134.256 109.436 135.709 109.693 136.509 108.215C137.295 106.77 136.44 105.049 137.299 103.92C139.004 104.003 138.592 104.172 138.693 107.591C144.619 109.381 150.678 108.986 154.145 102.938C157.705 96.7289 153.506 89.9737 150.152 88.0142C147.082 90.9374 145.985 89.6204 147.429 87.6058C150.134 87.0505 148.918 84.4439 149.576 82.521C149.924 81.4977 150.938 81.594 151.208 82.8652C151.418 83.8519 151.166 84.9946 151.217 86.5778L152.295 87.2662C153.803 89.4322 158.079 93.7597 157.243 98.202C164.974 98.5921 170.123 93.2779 169.831 85.4581C166.733 85.3617 166.107 85.8114 163.453 84.3291C161.145 83.035 160.633 81.6996 159.062 80.1393C158.646 79.7263 158.157 80.0842 156.727 80.02C155.329 79.9603 154.643 79.6253 155.173 78.3312C156.074 77.753 156.969 78.1706 158.285 78.0329C159.806 77.8769 160.994 76.9223 162.105 75.9632C163.288 74.9399 164.476 75.3712 163.777 76.982C163.361 77.9503 161.945 78.3817 161.077 79.4188C165.499 89.3542 180.787 80.2678 177.406 68.7813C176.333 69.2035 175.912 69.6395 175.008 70.0708C174.135 70.4884 173.354 70.571 172.591 70.9198C172.444 72.1451 172.559 73.1639 172.262 73.7559C171.704 74.8573 170.457 74.5452 170.402 72.6866C170.384 72.012 170.461 71.3695 170.37 70.1259C170.233 69.6211 167.405 64.9769 170.854 66.9594C171.325 67.2302 171.316 67.657 172.102 68.9373C178.448 68.4509 181.349 61.2965 179.773 54.3807C178.252 47.699 174.226 44.6794 166.559 44.9593C166.231 47.0473 167.56 49.3465 164.965 49.14C163.695 45.8037 165.934 44.9226 161.675 42.2747L161.762 40.7373L163.635 40.9071C166.39 44.895 166.486 42.1967 171.837 43.5367C173.468 43.9451 175.204 45.0832 176.406 45.1245C177.109 39.5855 175.848 34.5788 170.475 32.2704C168.812 31.5591 167.048 31.1002 164.924 31.2425C165.372 32.6835 167.309 36.5567 166.071 38.0619C164.604 39.5487 164.677 36.7219 164.161 35.9601C164.672 31.4995 159.884 27.5896 155.498 27.2729C150.157 26.8874 145.058 29.3518 144.578 34.1428L144.285 35.2855C145.917 35.9371 146.798 36.2262 148.046 37.3597L148.05 38.7594C145.912 38.9705 145.967 37.3001 143.271 37.1532C140.443 36.9972 140.525 38.5988 138.455 38.3097C138.318 36.9192 138.876 36.4006 140.059 35.8775C142.147 34.9642 142.28 36.0289 142.572 33.7848C143.28 31.7519 143.883 30.9534 144.546 29.361C141.996 27.6997 138.131 27.2316 134.901 28.5074C130.857 30.1044 129.687 33.4407 128.541 34.1749L128.449 47.7999L135.933 47.9881L136.125 61.3974L149.138 61.347L149.074 75.7659L135.933 75.7934L135.929 89.0789L128.513 89.1018Z" fill="white"/>
</mask>
<g mask="url(#mask1_14_3043)">
<path d="M181.336 26.8921H128.436V120.276H181.336V26.8921Z" fill="url(#paint1_linear_14_3043)"/>
</g>
<mask id="mask2_14_3043" style="mask-type:luminance" maskUnits="userSpaceOnUse" x="77" y="25" width="52" height="93">
<path d="M128.513 89.1019L128.618 117.775C93.1577 109.335 53.6905 46.6986 96.6942 27.9109C102.104 25.5475 108.935 25.2171 114.783 26.8003C119.722 28.1403 125.753 31.2563 128.522 34.1841L128.431 47.8092L121.591 47.901L121.545 61.3975H108.24L108.103 75.7751L121.454 75.7568L121.595 89.0284L128.513 89.1019Z" fill="white"/>
</mask>
<g mask="url(#mask2_14_3043)">
<path d="M128.622 25.217H53.6948V117.775H128.622V25.217Z" fill="url(#paint2_linear_14_3043)"/>
</g>
<mask id="mask3_14_3043" style="mask-type:luminance" maskUnits="userSpaceOnUse" x="55" y="89" width="73" height="56">
<path d="M73.9726 110.717C72.6338 110.001 71.688 109.395 70.4772 108.417C68.4075 106.742 66.4337 104.159 65.0584 101.231C63.2856 97.4541 61.0468 90.9422 57.7297 89.2947C52.9916 86.9451 59.1369 102.052 59.4796 103.071C60.2746 105.43 61.3072 108.037 62.3352 110.285C64.14 114.223 65.9265 116.866 68.8644 119.665C83.3254 133.433 91.376 125.443 106.166 129.087C108.734 129.72 110.781 130.592 113.097 131.904C117.858 134.603 122.304 138.494 125.854 142.693C126.16 143.056 126.777 143.942 127.183 144.029C126.745 138.783 121.166 130.725 118.557 126.957C111.311 116.49 103.393 109.101 91.0744 105.251C85.683 103.567 81.5937 102.002 76.4078 99.9093C75.0965 99.409 73.9543 98.8721 72.5881 98.4132C72.0307 98.2251 71.2083 97.8763 70.5047 97.8671C66.8631 97.8304 68.8872 101.254 70.363 102.924C73.045 105.953 82.1648 109.689 84.4722 112.199C81.0043 112.708 77.0886 112.387 73.9726 110.717Z" fill="white"/>
</mask>
<g mask="url(#mask3_14_3043)">
<path d="M127.179 86.9451H52.9868V144.038H127.179V86.9451Z" fill="url(#paint3_linear_14_3043)"/>
</g>
<mask id="mask4_14_3043" style="mask-type:luminance" maskUnits="userSpaceOnUse" x="130" y="89" width="73" height="56">
<path d="M184.118 110.717C185.457 110.001 186.403 109.395 187.613 108.417C189.683 106.742 191.657 104.159 193.032 101.231C194.805 97.4541 197.044 90.9422 200.361 89.2947C205.099 86.9451 198.954 102.052 198.611 103.071C197.816 105.43 196.783 108.037 195.755 110.285C193.951 114.223 192.164 116.866 189.226 119.665C174.765 133.433 166.715 125.443 151.925 129.087C149.357 129.72 147.31 130.592 144.994 131.904C140.233 134.603 135.787 138.494 132.237 142.693C131.931 143.056 131.314 143.942 130.907 144.029C131.346 138.783 136.925 130.725 139.534 126.957C146.78 116.49 154.698 109.101 167.016 105.251C172.408 103.567 176.497 102.002 181.683 99.9093C182.994 99.409 184.136 98.8721 185.503 98.4132C186.06 98.2251 186.882 97.8763 187.586 97.8671C191.228 97.8304 189.203 101.254 187.728 102.924C185.046 105.953 175.926 109.689 173.619 112.199C177.082 112.708 181.002 112.387 184.118 110.717Z" fill="white"/>
</mask>
<g mask="url(#mask4_14_3043)">
<path d="M205.099 86.9451H130.907V144.038H205.099V86.9451Z" fill="url(#paint4_linear_14_3043)"/>
</g>
<mask id="mask5_14_3043" style="mask-type:luminance" maskUnits="userSpaceOnUse" x="0" y="147" width="259" height="39">
<path d="M245.005 159.723C245.005 158.434 244.539 157.351 243.607 156.47C242.739 155.639 241.318 155.226 239.371 155.226H237.631V164.257H239.371C241.336 164.257 242.753 163.844 243.607 163.014C244.539 162.114 245.005 161.013 245.005 159.723ZM258.086 184.156H246.513L237.631 170.366V184.156H228.314V148.09H242.816C247.061 148.09 250.191 149.37 252.229 151.931C253.869 153.996 254.696 156.419 254.696 159.205C254.696 162.404 253.755 164.955 251.859 166.855C250.648 168.071 248.98 168.92 246.86 169.397L258.086 184.156ZM222.375 184.156H201.969V148.09H222.375V155.878H211.286V162.096H221.785V169.884H211.286V176.373H222.375V184.156ZM186.311 166.107C186.311 163.61 185.621 161.431 184.237 159.572C182.387 157.112 179.65 155.878 175.999 155.878H173.874V176.373H175.999C179.668 176.373 182.405 175.138 184.237 172.678C185.621 170.802 186.311 168.613 186.311 166.107ZM196.002 166.107C196.002 169.865 194.883 173.335 192.63 176.533C190.378 179.732 187.508 181.948 183.999 183.183C182.14 183.83 180.257 184.156 178.329 184.156H164.563V148.09H178.329C181.692 148.09 184.808 149.035 187.677 150.922C190.497 152.753 192.658 155.203 194.165 158.269C195.395 160.797 196.002 163.409 196.002 166.107ZM156.996 184.156H147.68V148.09H156.996V184.156ZM143.906 148.09L128.609 184.156H121.358L106.276 148.09H116.423L125.063 170.017L133.786 148.09H143.906ZM94.4373 166.24C94.4373 163.698 93.6285 161.499 92.0157 159.641C89.9413 157.273 87.3598 156.089 84.2529 156.089C82.11 156.089 80.1728 156.695 78.4274 157.902C76.6957 159.118 75.4575 160.733 74.7128 162.743C74.2924 163.895 74.0868 165.061 74.0868 166.24C74.0868 168.681 74.8955 170.861 76.5084 172.793C78.5096 175.18 81.0866 176.373 84.2529 176.373C87.4101 176.373 89.9962 175.193 92.0157 172.821C93.6331 170.925 94.4373 168.736 94.4373 166.24ZM104.128 166.24C104.128 171.141 102.506 175.441 99.2667 179.135C95.5704 183.344 90.5627 185.455 84.2529 185.455C77.9522 185.455 72.9583 183.344 69.2573 179.135C66.0179 175.441 64.3959 171.141 64.3959 166.24C64.3959 164.005 64.8345 161.715 65.7163 159.366C66.589 157.011 67.7633 154.997 69.2345 153.326C72.9308 149.118 77.9385 147.007 84.2529 147.007C90.5627 147.007 95.5658 149.118 99.2667 153.326C102.506 157.02 104.128 161.33 104.128 166.24ZM48.948 159.723C48.948 158.434 48.482 157.351 47.5499 156.47C46.6818 155.639 45.2608 155.226 43.3144 155.226H41.5736V164.257H43.3144C45.2791 164.257 46.6955 163.844 47.5499 163.014C48.482 162.114 48.948 161.013 48.948 159.723ZM62.0291 184.156H50.4558L41.5736 170.366V184.156H32.2573V148.09H46.7594C51.0041 148.09 54.1339 149.37 56.1716 151.931C57.8119 153.996 58.6389 156.419 58.6389 159.205C58.6389 162.404 57.6977 164.955 55.8016 166.855C54.5908 168.071 52.9231 168.92 50.803 169.397L62.0291 184.156ZM17.6045 160.086C17.6045 158.728 17.2115 157.635 16.4302 156.823C15.6489 156.011 14.3239 155.607 12.446 155.607H9.31625V164.693H12.4186C14.4381 164.693 15.8271 164.244 16.581 163.349C17.2618 162.546 17.6045 161.454 17.6045 160.086ZM27.2954 159.976C27.2954 163.23 26.5324 165.923 25.0063 168.062C23.0233 170.829 19.7382 172.206 15.1463 172.206H9.31625V184.156H0V148.09H14.8402C19.0666 148.09 22.2694 149.334 24.458 151.812C26.3542 153.946 27.2954 156.667 27.2954 159.976Z" fill="white"/>
</mask>
<g mask="url(#mask5_14_3043)">
<path d="M258.086 147.007H0V185.455H258.086V147.007Z" fill="url(#paint5_linear_14_3043)"/>
</g>
<mask id="mask6_14_3043" style="mask-type:luminance" maskUnits="userSpaceOnUse" x="79" y="194" width="100" height="24">
<path d="M167.514 205.908V213.292C168.314 213.365 168.962 213.402 169.461 213.402C171.22 213.402 172.503 213.099 173.298 212.498C174.093 211.897 174.491 210.901 174.491 209.51C174.491 208.239 174.121 207.308 173.381 206.729C172.645 206.151 171.352 205.858 169.506 205.858C169.118 205.862 168.46 205.876 167.514 205.908ZM167.514 197.427V202.792C168.126 202.833 168.766 202.856 169.438 202.856C172.019 202.856 173.312 201.879 173.312 199.938C173.312 198.212 172.138 197.349 169.789 197.349C169.164 197.349 168.405 197.377 167.514 197.427ZM170.374 216.624H163.557V194.243C166.564 194.1 168.67 194.027 169.876 194.027C172.193 194.027 174.007 194.522 175.309 195.518C176.611 196.514 177.264 197.937 177.264 199.786C177.264 201.558 176.328 202.962 174.459 203.994C177.223 204.958 178.603 206.959 178.603 209.983C178.603 212.016 177.84 213.636 176.309 214.829C174.779 216.027 172.8 216.624 170.374 216.624ZM121.614 194.252H125.57V209.41C125.57 210.607 125.936 211.585 126.667 212.337C127.393 213.095 128.394 213.471 129.673 213.471C131.103 213.471 132.214 213.099 133.009 212.365C133.804 211.626 134.201 210.616 134.201 209.336V194.256H138.158V209.648C138.158 211.947 137.39 213.746 135.851 215.05C134.32 216.353 132.269 217.004 129.701 217.004C127.115 217.004 125.123 216.367 123.72 215.095C122.313 213.824 121.614 212.002 121.614 209.63V194.252ZM92.285 216.624V206.546H83.4348V216.624H79.478V194.247H83.4348V203.008H92.285V194.247H96.2098V216.624H92.285Z" fill="white"/>
</mask>
<g mask="url(#mask6_14_3043)">
<path d="M178.608 194.031H79.4824V217H178.608V194.031Z" fill="url(#paint6_linear_14_3043)"/>
</g>
<mask id="mask7_14_3043" style="mask-type:luminance" maskUnits="userSpaceOnUse" x="3" y="202" width="64" height="7">
<path d="M3.71924 204.995L66.5205 202.333L66.3241 208.698L3.71924 204.995Z" fill="white"/>
</mask>
<g mask="url(#mask7_14_3043)">
<path d="M66.5205 202.333H3.71924V208.703H66.5205V202.333Z" fill="url(#paint7_linear_14_3043)"/>
</g>
<mask id="mask8_14_3043" style="mask-type:luminance" maskUnits="userSpaceOnUse" x="188" y="202" width="64" height="7">
<path d="M251.644 204.995L188.838 202.333L189.039 208.698L251.644 204.995Z" fill="white"/>
</mask>
<g mask="url(#mask8_14_3043)">
<path d="M251.639 202.333H188.838V208.703H251.639V202.333Z" fill="url(#paint8_linear_14_3043)"/>
</g>
</g>
<defs>
<linearGradient id="paint0_linear_14_3043" x1="111.411" y1="-220.924" x2="205.104" y2="1107.53" gradientUnits="userSpaceOnUse">
<stop stop-color="#0000FF"/>
<stop offset="0.1" stop-color="#0084FF"/>
<stop offset="0.19" stop-color="#00FFFF"/>
<stop offset="0.27" stop-color="#0000FF"/>
<stop offset="1" stop-color="#FEFEFE"/>
</linearGradient>
<linearGradient id="paint1_linear_14_3043" x1="154.886" y1="102.939" x2="154.886" y2="20.1746" gradientUnits="userSpaceOnUse">
<stop stop-color="#00FFFF"/>
<stop offset="0.43" stop-color="#FCFE07"/>
<stop offset="1" stop-color="#009A00"/>
</linearGradient>
<linearGradient id="paint2_linear_14_3043" x1="48.9231" y1="-175.304" x2="260.121" y2="1048.06" gradientUnits="userSpaceOnUse">
<stop stop-color="#0000FF"/>
<stop offset="0.1" stop-color="#0084FF"/>
<stop offset="0.19" stop-color="#00FFFF"/>
<stop offset="0.27" stop-color="#0000FF"/>
<stop offset="1" stop-color="#FEFEFE"/>
</linearGradient>
<linearGradient id="paint3_linear_14_3043" x1="79.0514" y1="-35.9271" x2="134.129" y2="713.451" gradientUnits="userSpaceOnUse">
<stop stop-color="#0000FF"/>
<stop offset="0.1" stop-color="#0084FF"/>
<stop offset="0.19" stop-color="#00FFFF"/>
<stop offset="0.27" stop-color="#0000FF"/>
<stop offset="1" stop-color="#FEFEFE"/>
</linearGradient>
<linearGradient id="paint4_linear_14_3043" x1="156.957" y1="-36.1426" x2="212.035" y2="713.235" gradientUnits="userSpaceOnUse">
<stop stop-color="#0000FF"/>
<stop offset="0.1" stop-color="#0084FF"/>
<stop offset="0.19" stop-color="#00FFFF"/>
<stop offset="0.27" stop-color="#0000FF"/>
<stop offset="1" stop-color="#FEFEFE"/>
</linearGradient>
<linearGradient id="paint5_linear_14_3043" x1="129.043" y1="178.838" x2="129.043" y2="144.039" gradientUnits="userSpaceOnUse">
<stop stop-color="#00FFFF"/>
<stop offset="0.43" stop-color="#FCFE07"/>
<stop offset="1" stop-color="#009A00"/>
</linearGradient>
<linearGradient id="paint6_linear_14_3043" x1="127.642" y1="141.475" x2="134.583" y2="456.033" gradientUnits="userSpaceOnUse">
<stop stop-color="#0000FF"/>
<stop offset="0.1" stop-color="#0084FF"/>
<stop offset="0.19" stop-color="#00FFFF"/>
<stop offset="0.27" stop-color="#0000FF"/>
<stop offset="1" stop-color="#FEFEFE"/>
</linearGradient>
<linearGradient id="paint7_linear_14_3043" x1="34.95" y1="187.756" x2="35.7935" y2="274.995" gradientUnits="userSpaceOnUse">
<stop stop-color="#0000FF"/>
<stop offset="0.1" stop-color="#0084FF"/>
<stop offset="0.19" stop-color="#00FFFF"/>
<stop offset="0.27" stop-color="#0000FF"/>
<stop offset="1" stop-color="#FEFEFE"/>
</linearGradient>
<linearGradient id="paint8_linear_14_3043" x1="220.072" y1="187.751" x2="220.911" y2="274.99" gradientUnits="userSpaceOnUse">
<stop stop-color="#0000FF"/>
<stop offset="0.1" stop-color="#0084FF"/>
<stop offset="0.19" stop-color="#00FFFF"/>
<stop offset="0.27" stop-color="#0000FF"/>
<stop offset="1" stop-color="#FEFEFE"/>
</linearGradient>
<clipPath id="clip0_14_3043">
<rect width="259" height="217" fill="white"/>
</clipPath>
</defs>
</svg>
