<svg width="16" height="16" viewBox="0 0 16 16" fill="none" xmlns="http://www.w3.org/2000/svg">
<path d="M6.25016 3.85294C6.09545 3.85294 5.94708 3.91536 5.83768 4.02646C5.72829 4.13756 5.66683 4.28825 5.66683 4.44537C5.66683 4.60249 5.72829 4.75318 5.83768 4.86428C5.94708 4.97539 6.09545 5.0378 6.25016 5.0378C6.40487 5.0378 6.55325 4.97539 6.66264 4.86428C6.77204 4.75318 6.8335 4.60249 6.8335 4.44537C6.8335 4.28825 6.77204 4.13756 6.66264 4.02646C6.55325 3.91536 6.40487 3.85294 6.25016 3.85294ZM4.59933 3.85294C4.71985 3.50605 4.94334 3.20567 5.23901 2.9932C5.53468 2.78073 5.88796 2.66663 6.25016 2.66663C6.61236 2.66663 6.96564 2.78073 7.26131 2.9932C7.55698 3.20567 7.78048 3.50605 7.901 3.85294H12.0835C12.2382 3.85294 12.3866 3.91536 12.496 4.02646C12.6054 4.13756 12.6668 4.28825 12.6668 4.44537C12.6668 4.60249 12.6054 4.75318 12.496 4.86428C12.3866 4.97539 12.2382 5.0378 12.0835 5.0378H7.901C7.78048 5.38469 7.55698 5.68507 7.26131 5.89755C6.96564 6.11002 6.61236 6.22412 6.25016 6.22412C5.88796 6.22412 5.53468 6.11002 5.23901 5.89755C4.94334 5.68507 4.71985 5.38469 4.59933 5.0378H3.91683C3.76212 5.0378 3.61375 4.97539 3.50435 4.86428C3.39495 4.75318 3.3335 4.60249 3.3335 4.44537C3.3335 4.28825 3.39495 4.13756 3.50435 4.02646C3.61375 3.91536 3.76212 3.85294 3.91683 3.85294H4.59933ZM9.75016 7.40753C9.59545 7.40753 9.44708 7.46994 9.33768 7.58105C9.22829 7.69215 9.16683 7.84284 9.16683 7.99996C9.16683 8.15708 9.22829 8.30777 9.33768 8.41887C9.44708 8.52997 9.59545 8.59239 9.75016 8.59239C9.90487 8.59239 10.0532 8.52997 10.1626 8.41887C10.272 8.30777 10.3335 8.15708 10.3335 7.99996C10.3335 7.84284 10.272 7.69215 10.1626 7.58105C10.0532 7.46994 9.90487 7.40753 9.75016 7.40753ZM8.09933 7.40753C8.21985 7.06064 8.44334 6.76026 8.73901 6.54779C9.03468 6.33531 9.38796 6.22121 9.75016 6.22121C10.1124 6.22121 10.4656 6.33531 10.7613 6.54779C11.057 6.76026 11.2805 7.06064 11.401 7.40753H12.0835C12.2382 7.40753 12.3866 7.46994 12.496 7.58105C12.6054 7.69215 12.6668 7.84284 12.6668 7.99996C12.6668 8.15708 12.6054 8.30777 12.496 8.41887C12.3866 8.52997 12.2382 8.59239 12.0835 8.59239H11.401C11.2805 8.93928 11.057 9.23966 10.7613 9.45213C10.4656 9.6646 10.1124 9.77871 9.75016 9.77871C9.38796 9.77871 9.03468 9.6646 8.73901 9.45213C8.44334 9.23966 8.21985 8.93928 8.09933 8.59239H3.91683C3.76212 8.59239 3.61375 8.52997 3.50435 8.41887C3.39495 8.30777 3.3335 8.15708 3.3335 7.99996C3.3335 7.84284 3.39495 7.69215 3.50435 7.58105C3.61375 7.46994 3.76212 7.40753 3.91683 7.40753H8.09933ZM6.25016 10.9621C6.09545 10.9621 5.94708 11.0245 5.83768 11.1356C5.72829 11.2467 5.66683 11.3974 5.66683 11.5545C5.66683 11.7117 5.72829 11.8624 5.83768 11.9735C5.94708 12.0846 6.09545 12.147 6.25016 12.147C6.40487 12.147 6.55325 12.0846 6.66264 11.9735C6.77204 11.8624 6.8335 11.7117 6.8335 11.5545C6.8335 11.3974 6.77204 11.2467 6.66264 11.1356C6.55325 11.0245 6.40487 10.9621 6.25016 10.9621ZM4.59933 10.9621C4.71985 10.6152 4.94334 10.3148 5.23901 10.1024C5.53468 9.8899 5.88796 9.7758 6.25016 9.7758C6.61236 9.7758 6.96564 9.8899 7.26131 10.1024C7.55698 10.3148 7.78048 10.6152 7.901 10.9621H12.0835C12.2382 10.9621 12.3866 11.0245 12.496 11.1356C12.6054 11.2467 12.6668 11.3974 12.6668 11.5545C12.6668 11.7117 12.6054 11.8624 12.496 11.9735C12.3866 12.0846 12.2382 12.147 12.0835 12.147H7.901C7.78048 12.4939 7.55698 12.7942 7.26131 13.0067C6.96564 13.2192 6.61236 13.3333 6.25016 13.3333C5.88796 13.3333 5.53468 13.2192 5.23901 13.0067C4.94334 12.7942 4.71985 12.4939 4.59933 12.147H3.91683C3.76212 12.147 3.61375 12.0846 3.50435 11.9735C3.39495 11.8624 3.3335 11.7117 3.3335 11.5545C3.3335 11.3974 3.39495 11.2467 3.50435 11.1356C3.61375 11.0245 3.76212 10.9621 3.91683 10.9621H4.59933Z" fill="white"/>
</svg>
