<svg width="24" height="24" viewBox="0 0 24 24" fill="none" xmlns="http://www.w3.org/2000/svg">
<rect x="0.5" y="0.5" width="23" height="23" rx="11.5" fill="white"/>
<rect x="0.5" y="0.5" width="23" height="23" rx="11.5" stroke="black"/>
<path d="M15.0057 13.805H14.3734L14.1492 13.5889C14.9609 12.6476 15.4069 11.4459 15.4059 10.203C15.4059 9.17392 15.1008 8.16798 14.5291 7.31236C13.9574 6.45673 13.1448 5.78986 12.1941 5.39606C11.2433 5.00225 10.1972 4.89922 9.18792 5.09998C8.17865 5.30073 7.25157 5.79627 6.52392 6.52392C5.79627 7.25157 5.30073 8.17865 5.09998 9.18792C4.89922 10.1972 5.00225 11.2433 5.39606 12.1941C5.78986 13.1448 6.45673 13.9574 7.31236 14.5291C8.16798 15.1008 9.17392 15.4059 10.203 15.4059C11.4917 15.4059 12.6764 14.9337 13.5889 14.1492L13.805 14.3734V15.0057L17.8073 19L19 17.8073L15.0057 13.805ZM10.203 13.805C8.20984 13.805 6.60092 12.1961 6.60092 10.203C6.60092 8.20984 8.20984 6.60092 10.203 6.60092C12.1961 6.60092 13.805 8.20984 13.805 10.203C13.805 12.1961 12.1961 13.805 10.203 13.805Z" fill="black"/>
</svg>
