<svg width="93" height="24" viewBox="0 0 93 24" fill="none" xmlns="http://www.w3.org/2000/svg">
<path d="M10.5 12.4425L8.5575 10.5L7.5 11.5575L10.5 14.5575L16.5 8.5575L15.4425 7.5L10.5 12.4425Z" fill="#34A853"/>
<path d="M12 22.5L7.368 20.0303C6.0475 19.3277 4.94323 18.2789 4.1737 16.9963C3.40416 15.7137 2.99842 14.2457 3 12.75V3C3.0004 2.6023 3.15856 2.221 3.43978 1.93978C3.721 1.65856 4.1023 1.5004 4.5 1.5H19.5C19.8977 1.5004 20.279 1.65856 20.5602 1.93978C20.8414 2.221 20.9996 2.6023 21 3V12.75C21.0016 14.2457 20.5958 15.7137 19.8263 16.9963C19.0568 18.2789 17.9525 19.3277 16.632 20.0303L12 22.5ZM4.5 3V12.75C4.49876 13.9739 4.83083 15.1749 5.46058 16.2243C6.09032 17.2737 6.99396 18.1318 8.0745 18.7065L12 20.7997L15.9255 18.7073C17.0062 18.1325 17.9099 17.2743 18.5396 16.2248C19.1694 15.1752 19.5014 13.974 19.5 12.75V3H4.5Z" fill="#34A853"/>
<path d="M32.58 3.955C32.55 4.005 32.5167 4.04333 32.48 4.07C32.4467 4.09333 32.405 4.105 32.355 4.105C32.2983 4.105 32.2317 4.07667 32.155 4.02C32.0783 3.96333 31.9817 3.90167 31.865 3.835C31.7517 3.765 31.6133 3.70167 31.45 3.645C31.29 3.58833 31.095 3.56 30.865 3.56C30.6483 3.56 30.4567 3.59 30.29 3.65C30.1267 3.70667 29.9883 3.785 29.875 3.885C29.765 3.985 29.6817 4.10333 29.625 4.24C29.5683 4.37333 29.54 4.51833 29.54 4.675C29.54 4.875 29.5883 5.04167 29.685 5.175C29.785 5.305 29.915 5.41667 30.075 5.51C30.2383 5.60333 30.4217 5.685 30.625 5.755C30.8317 5.82167 31.0417 5.89167 31.255 5.965C31.4717 6.03833 31.6817 6.12167 31.885 6.215C32.0917 6.305 32.275 6.42 32.435 6.56C32.5983 6.7 32.7283 6.87167 32.825 7.075C32.925 7.27833 32.975 7.52833 32.975 7.825C32.975 8.13833 32.9217 8.43333 32.815 8.71C32.7083 8.98333 32.5517 9.22167 32.345 9.425C32.1417 9.62833 31.89 9.78833 31.59 9.905C31.2933 10.0217 30.955 10.08 30.575 10.08C30.1083 10.08 29.685 9.99667 29.305 9.83C28.925 9.66 28.6 9.43167 28.33 9.145L28.61 8.685C28.6367 8.64833 28.6683 8.61833 28.705 8.595C28.745 8.56833 28.7883 8.555 28.835 8.555C28.8783 8.555 28.9267 8.57333 28.98 8.61C29.0367 8.64333 29.1 8.68667 29.17 8.74C29.24 8.79333 29.32 8.85167 29.41 8.915C29.5 8.97833 29.6017 9.03667 29.715 9.09C29.8317 9.14333 29.9633 9.18833 30.11 9.225C30.2567 9.25833 30.4217 9.275 30.605 9.275C30.835 9.275 31.04 9.24333 31.22 9.18C31.4 9.11667 31.5517 9.02833 31.675 8.915C31.8017 8.79833 31.8983 8.66 31.965 8.5C32.0317 8.34 32.065 8.16167 32.065 7.965C32.065 7.74833 32.015 7.57167 31.915 7.435C31.8183 7.295 31.69 7.17833 31.53 7.085C31.37 6.99167 31.1867 6.91333 30.98 6.85C30.7733 6.78333 30.5633 6.71667 30.35 6.65C30.1367 6.58 29.9267 6.5 29.72 6.41C29.5133 6.32 29.33 6.20333 29.17 6.06C29.01 5.91667 28.88 5.73833 28.78 5.525C28.6833 5.30833 28.635 5.04167 28.635 4.725C28.635 4.47167 28.6833 4.22667 28.78 3.99C28.88 3.75333 29.0233 3.54333 29.21 3.36C29.4 3.17667 29.6317 3.03 29.905 2.92C30.1817 2.81 30.4983 2.755 30.855 2.755C31.255 2.755 31.6183 2.81833 31.945 2.945C32.275 3.07167 32.565 3.255 32.815 3.495L32.58 3.955ZM38.4647 9.21L38.4597 10H34.0447V2.835H38.4597V3.625H35.0147V6.005H37.8047V6.765H35.0147V9.21H38.4647ZM44.3899 8.52C44.4433 8.52 44.4899 8.54167 44.5299 8.585L44.9149 9C44.6216 9.34 44.2649 9.605 43.8449 9.795C43.4283 9.985 42.9233 10.08 42.3299 10.08C41.8166 10.08 41.3499 9.99167 40.9299 9.815C40.5099 9.635 40.1516 9.385 39.8549 9.065C39.5583 8.74167 39.3283 8.355 39.1649 7.905C39.0016 7.455 38.9199 6.96 38.9199 6.42C38.9199 5.88 39.0049 5.385 39.1749 4.935C39.3449 4.485 39.5833 4.09833 39.8899 3.775C40.1999 3.45167 40.5699 3.20167 40.9999 3.025C41.4299 2.845 41.9049 2.755 42.4249 2.755C42.9349 2.755 43.3849 2.83667 43.7749 3C44.1649 3.16333 44.5083 3.385 44.8049 3.665L44.4849 4.11C44.4649 4.14333 44.4383 4.17167 44.4049 4.195C44.3749 4.215 44.3333 4.225 44.2799 4.225C44.2199 4.225 44.1466 4.19333 44.0599 4.13C43.9733 4.06333 43.8599 3.99 43.7199 3.91C43.5799 3.83 43.4049 3.75833 43.1949 3.695C42.9849 3.62833 42.7266 3.595 42.4199 3.595C42.0499 3.595 41.7116 3.66 41.4049 3.79C41.0983 3.91667 40.8333 4.10167 40.6099 4.345C40.3899 4.58833 40.2183 4.885 40.0949 5.235C39.9716 5.585 39.9099 5.98 39.9099 6.42C39.9099 6.86667 39.9733 7.265 40.0999 7.615C40.2299 7.965 40.4049 8.26167 40.6249 8.505C40.8483 8.745 41.1099 8.92833 41.4099 9.055C41.7133 9.18167 42.0399 9.245 42.3899 9.245C42.6033 9.245 42.7949 9.23333 42.9649 9.21C43.1383 9.18333 43.2966 9.14333 43.4399 9.09C43.5866 9.03667 43.7216 8.97 43.8449 8.89C43.9716 8.80667 44.0966 8.70833 44.2199 8.595C44.2766 8.545 44.3333 8.52 44.3899 8.52ZM48.5046 9.23C48.8013 9.23 49.0663 9.18 49.2996 9.08C49.5329 8.98 49.7296 8.84 49.8896 8.66C50.0529 8.48 50.1763 8.265 50.2596 8.015C50.3463 7.765 50.3896 7.49 50.3896 7.19V2.835H51.3546V7.19C51.3546 7.60333 51.2879 7.98667 51.1546 8.34C51.0246 8.69333 50.8363 9 50.5896 9.26C50.3463 9.51667 50.0479 9.71833 49.6946 9.865C49.3413 10.0117 48.9446 10.085 48.5046 10.085C48.0646 10.085 47.6679 10.0117 47.3146 9.865C46.9613 9.71833 46.6613 9.51667 46.4146 9.26C46.1679 9 45.9779 8.69333 45.8446 8.34C45.7146 7.98667 45.6496 7.60333 45.6496 7.19V2.835H46.6146V7.185C46.6146 7.485 46.6563 7.76 46.7396 8.01C46.8263 8.26 46.9496 8.475 47.1096 8.655C47.2729 8.835 47.4713 8.97667 47.7046 9.08C47.9413 9.18 48.2079 9.23 48.5046 9.23ZM54.7781 6.305C55.0581 6.305 55.3048 6.27167 55.5181 6.205C55.7348 6.135 55.9148 6.03833 56.0581 5.915C56.2048 5.78833 56.3148 5.63833 56.3881 5.465C56.4615 5.29167 56.4981 5.1 56.4981 4.89C56.4981 4.46333 56.3581 4.14167 56.0781 3.925C55.7981 3.70833 55.3781 3.6 54.8181 3.6H53.7581V6.305H54.7781ZM58.0881 10H57.2281C57.0515 10 56.9215 9.93167 56.8381 9.795L54.9781 7.235C54.9215 7.155 54.8598 7.09833 54.7931 7.065C54.7298 7.02833 54.6298 7.01 54.4931 7.01H53.7581V10H52.7931V2.835H54.8181C55.2715 2.835 55.6631 2.88167 55.9931 2.975C56.3231 3.065 56.5948 3.19667 56.8081 3.37C57.0248 3.54333 57.1848 3.75333 57.2881 4C57.3915 4.24333 57.4431 4.51667 57.4431 4.82C57.4431 5.07333 57.4031 5.31 57.3231 5.53C57.2431 5.75 57.1265 5.94833 56.9731 6.125C56.8231 6.29833 56.6381 6.44667 56.4181 6.57C56.2015 6.69333 55.9548 6.78667 55.6781 6.85C55.8015 6.92 55.9081 7.02167 55.9981 7.155L58.0881 10ZM59.7327 10H58.7627V2.835H59.7327V10ZM66.1104 3.65H63.7904V10H62.8254V3.65H60.5004V2.835H66.1104V3.65ZM69.5636 7.145V10H68.5936V7.145L65.9686 2.835H66.8186C66.9053 2.835 66.9736 2.85667 67.0236 2.9C67.0736 2.94 67.1169 2.99333 67.1536 3.06L68.7936 5.845C68.8536 5.96167 68.9086 6.07167 68.9586 6.175C69.0086 6.275 69.0519 6.37667 69.0886 6.48C69.1253 6.37667 69.1669 6.275 69.2136 6.175C69.2603 6.07167 69.3119 5.96167 69.3686 5.845L71.0036 3.06C71.0336 3.00333 71.0753 2.95167 71.1286 2.905C71.1819 2.85833 71.2503 2.835 71.3336 2.835H72.1886L69.5636 7.145ZM34.735 18.555V21.305C34.375 21.565 33.99 21.76 33.58 21.89C33.1733 22.0167 32.7267 22.08 32.24 22.08C31.6633 22.08 31.1433 21.9917 30.68 21.815C30.2167 21.635 29.82 21.385 29.49 21.065C29.1633 20.7417 28.9117 20.355 28.735 19.905C28.5583 19.455 28.47 18.96 28.47 18.42C28.47 17.8733 28.555 17.375 28.725 16.925C28.8983 16.475 29.1433 16.09 29.46 15.77C29.7767 15.4467 30.1617 15.1967 30.615 15.02C31.0683 14.8433 31.575 14.755 32.135 14.755C32.4183 14.755 32.6817 14.7767 32.925 14.82C33.1683 14.86 33.3933 14.92 33.6 15C33.8067 15.0767 33.9983 15.1717 34.175 15.285C34.3517 15.395 34.5167 15.52 34.67 15.66L34.395 16.1C34.3517 16.1667 34.295 16.21 34.225 16.23C34.1583 16.2467 34.0833 16.23 34 16.18C33.92 16.1333 33.8283 16.0767 33.725 16.01C33.6217 15.9433 33.495 15.88 33.345 15.82C33.1983 15.7567 33.0233 15.7033 32.82 15.66C32.62 15.6167 32.3817 15.595 32.105 15.595C31.7017 15.595 31.3367 15.6617 31.01 15.795C30.6833 15.925 30.405 16.1133 30.175 16.36C29.945 16.6033 29.7683 16.9 29.645 17.25C29.5217 17.5967 29.46 17.9867 29.46 18.42C29.46 18.87 29.5233 19.2733 29.65 19.63C29.78 19.9833 29.9633 20.285 30.2 20.535C30.44 20.7817 30.73 20.97 31.07 21.1C31.41 21.23 31.7917 21.295 32.215 21.295C32.5483 21.295 32.8433 21.2583 33.1 21.185C33.36 21.1083 33.6133 21.0033 33.86 20.87V19.295H32.745C32.6817 19.295 32.63 19.2767 32.59 19.24C32.5533 19.2033 32.535 19.1583 32.535 19.105V18.555H34.735ZM38.6847 21.23C38.9814 21.23 39.2464 21.18 39.4797 21.08C39.713 20.98 39.9097 20.84 40.0697 20.66C40.233 20.48 40.3564 20.265 40.4397 20.015C40.5264 19.765 40.5697 19.49 40.5697 19.19V14.835H41.5347V19.19C41.5347 19.6033 41.468 19.9867 41.3347 20.34C41.2047 20.6933 41.0164 21 40.7697 21.26C40.5264 21.5167 40.228 21.7183 39.8747 21.865C39.5214 22.0117 39.1247 22.085 38.6847 22.085C38.2447 22.085 37.848 22.0117 37.4947 21.865C37.1414 21.7183 36.8414 21.5167 36.5947 21.26C36.348 21 36.158 20.6933 36.0247 20.34C35.8947 19.9867 35.8297 19.6033 35.8297 19.19V14.835H36.7947V19.185C36.7947 19.485 36.8364 19.76 36.9197 20.01C37.0064 20.26 37.1297 20.475 37.2897 20.655C37.453 20.835 37.6514 20.9767 37.8847 21.08C38.1214 21.18 38.388 21.23 38.6847 21.23ZM46.6122 19.34L45.4872 16.425C45.4539 16.3383 45.4189 16.2383 45.3822 16.125C45.3455 16.0083 45.3105 15.885 45.2772 15.755C45.2072 16.025 45.1355 16.25 45.0622 16.43L43.9372 19.34H46.6122ZM48.6322 22H47.8822C47.7955 22 47.7255 21.9783 47.6722 21.935C47.6189 21.8917 47.5789 21.8367 47.5522 21.77L46.8822 20.04H43.6672L42.9972 21.77C42.9772 21.83 42.9389 21.8833 42.8822 21.93C42.8255 21.9767 42.7555 22 42.6722 22H41.9222L44.7872 14.835H45.7672L48.6322 22ZM51.2598 18.305C51.5398 18.305 51.7864 18.2717 51.9998 18.205C52.2164 18.135 52.3964 18.0383 52.5398 17.915C52.6864 17.7883 52.7964 17.6383 52.8698 17.465C52.9431 17.2917 52.9798 17.1 52.9798 16.89C52.9798 16.4633 52.8398 16.1417 52.5598 15.925C52.2798 15.7083 51.8598 15.6 51.2998 15.6H50.2398V18.305H51.2598ZM54.5698 22H53.7098C53.5331 22 53.4031 21.9317 53.3198 21.795L51.4598 19.235C51.4031 19.155 51.3414 19.0983 51.2748 19.065C51.2114 19.0283 51.1114 19.01 50.9748 19.01H50.2398V22H49.2748V14.835H51.2998C51.7531 14.835 52.1448 14.8817 52.4748 14.975C52.8048 15.065 53.0764 15.1967 53.2898 15.37C53.5064 15.5433 53.6664 15.7533 53.7698 16C53.8731 16.2433 53.9248 16.5167 53.9248 16.82C53.9248 17.0733 53.8848 17.31 53.8048 17.53C53.7248 17.75 53.6081 17.9483 53.4548 18.125C53.3048 18.2983 53.1198 18.4467 52.8998 18.57C52.6831 18.6933 52.4364 18.7867 52.1598 18.85C52.2831 18.92 52.3898 19.0217 52.4798 19.155L54.5698 22ZM59.0493 19.34L57.9243 16.425C57.891 16.3383 57.856 16.2383 57.8193 16.125C57.7826 16.0083 57.7476 15.885 57.7143 15.755C57.6443 16.025 57.5726 16.25 57.4993 16.43L56.3743 19.34H59.0493ZM61.0693 22H60.3193C60.2326 22 60.1626 21.9783 60.1093 21.935C60.056 21.8917 60.016 21.8367 59.9893 21.77L59.3193 20.04H56.1043L55.4343 21.77C55.4143 21.83 55.376 21.8833 55.3193 21.93C55.2626 21.9767 55.1926 22 55.1093 22H54.3593L57.2243 14.835H58.2043L61.0693 22ZM67.5169 14.835V22H67.0319C66.9552 22 66.8902 21.9867 66.8369 21.96C66.7869 21.9333 66.7369 21.8883 66.6869 21.825L62.5419 16.425C62.5485 16.5083 62.5535 16.59 62.5569 16.67C62.5602 16.75 62.5619 16.825 62.5619 16.895V22H61.7119V14.835H62.2119C62.2552 14.835 62.2919 14.8383 62.3219 14.845C62.3519 14.8483 62.3785 14.8567 62.4019 14.87C62.4252 14.88 62.4485 14.8967 62.4719 14.92C62.4952 14.94 62.5202 14.9667 62.5469 15L66.6919 20.395C66.6852 20.3083 66.6785 20.225 66.6719 20.145C66.6685 20.0617 66.6669 19.9833 66.6669 19.91V14.835H67.5169ZM73.8936 15.65H71.5736V22H70.6086V15.65H68.2836V14.835H73.8936V15.65ZM79.0768 21.21L79.0718 22H74.6568V14.835H79.0718V15.625H75.6268V18.005H78.4168V18.765H75.6268V21.21H79.0768ZM84.5483 21.21L84.5433 22H80.1283V14.835H84.5433V15.625H81.0983V18.005H83.8883V18.765H81.0983V21.21H84.5483ZM91.8098 18.42C91.8098 18.9567 91.7248 19.445 91.5548 19.885C91.3848 20.325 91.1448 20.7017 90.8348 21.015C90.5248 21.3283 90.1514 21.5717 89.7148 21.745C89.2814 21.915 88.8014 22 88.2748 22H85.5998V14.835H88.2748C88.8014 14.835 89.2814 14.9217 89.7148 15.095C90.1514 15.265 90.5248 15.5083 90.8348 15.825C91.1448 16.1383 91.3848 16.515 91.5548 16.955C91.7248 17.395 91.8098 17.8833 91.8098 18.42ZM90.8148 18.42C90.8148 17.98 90.7548 17.5867 90.6348 17.24C90.5148 16.8933 90.3448 16.6 90.1248 16.36C89.9048 16.12 89.6381 15.9367 89.3248 15.81C89.0114 15.6833 88.6614 15.62 88.2748 15.62H86.5698V21.215H88.2748C88.6614 21.215 89.0114 21.1517 89.3248 21.025C89.6381 20.8983 89.9048 20.7167 90.1248 20.48C90.3448 20.24 90.5148 19.9467 90.6348 19.6C90.7548 19.2533 90.8148 18.86 90.8148 18.42Z" fill="#34A853"/>
</svg>
